<svg width="25" height="25" viewBox="0 0 25 25" fill="none" xmlns="http://www.w3.org/2000/svg">
<path d="M12.4876 5.63781L17.37 10.5353L20.1745 7.71071C20.1745 7.71071 12.4081 0.0455581 12.4081 0L4.80064 7.63098L7.65059 10.4898L12.4876 5.63781ZM12.4876 19.3736L7.60518 14.4761L4.80064 17.2893C4.80064 17.2893 12.567 24.9544 12.567 25L20.1745 17.369L17.3245 14.5103L12.4876 19.3736ZM0 12.5257L2.82611 9.69089L5.65222 12.5257L2.82611 15.3606L0 12.5257Z" fill="#F0B90B"/>
<path d="M9.67407 12.5264L12.5002 9.69152L15.3263 12.5264L12.5002 15.3612L9.67407 12.5264ZM19.3478 12.5263L22.1739 9.69141L25 12.5263L22.1739 15.3611L19.3478 12.5263Z" fill="#F0B90B"/>
</svg>
