<svg width="25" height="25" viewBox="0 0 25 25" fill="none" xmlns="http://www.w3.org/2000/svg">
<path fill-rule="evenodd" clip-rule="evenodd" d="M25 12.5C25 5.59698 19.403 0 12.5 0C5.59698 0 0 5.59698 0 12.5C0 18.7385 4.57043 23.9101 10.5471 24.849V16.1141H7.37238V12.5H10.5471V9.74543C10.5471 6.61293 12.4139 4.88148 15.2686 4.88148C16.6362 4.88148 18.067 5.1258 18.067 5.1258V8.20207H16.4903C14.9381 8.20207 14.4529 9.16536 14.4529 10.155V12.4999H17.9193L17.3656 16.114H14.4528V24.8488C20.4295 23.9118 24.9998 18.7403 24.9998 12.4999L25 12.5Z" fill="#1977F3"/>
<path fill-rule="evenodd" clip-rule="evenodd" d="M17.3656 16.1139L17.9194 12.4998H14.453V10.1549C14.453 9.16699 14.9364 8.20196 16.4903 8.20196H18.0672V5.12569C18.0672 5.12569 16.6363 4.88135 15.2687 4.88135C12.4139 4.88135 10.5471 6.6111 10.5471 9.74532V12.4999H7.37244V16.114H10.5471V24.8488C11.1834 24.9488 11.8356 24.9999 12.5001 24.9999C13.1645 24.9999 13.8167 24.9471 14.453 24.8488V16.114H17.3658L17.3656 16.1139Z" fill="#FEFEFE"/>
</svg>
