<svg width="25" height="25" viewBox="0 0 25 25" fill="none" xmlns="http://www.w3.org/2000/svg">
<path d="M12.511 6.13095C12.2911 6.13095 12.0737 6.14216 11.8594 6.16411C11.6452 6.18605 11.4339 6.21857 11.2262 6.26124C11.0186 6.30393 10.8146 6.3568 10.6147 6.41919L10.0279 6.63463L9.46929 6.90437L8.94214 7.22513L8.44959 7.59355L7.99507 8.00642L7.58181 8.46053L7.21299 8.95253L6.89182 9.47919L6.62193 10.0372C6.5408 10.228 6.46863 10.4237 6.40617 10.6234C6.3437 10.8232 6.29084 11.0271 6.24806 11.2345C6.2053 11.442 6.17278 11.653 6.15075 11.8671C6.12873 12.0812 6.11768 12.2984 6.11768 12.518C6.11768 12.7376 6.12889 12.9548 6.15075 13.1689C6.1725 13.3813 6.20497 13.5924 6.24806 13.8015C6.29084 14.0097 6.3437 14.2128 6.40617 14.4126C6.46863 14.6123 6.54071 14.8079 6.62193 14.9988L6.89182 15.5568L7.21299 16.0834L7.58181 16.5755L7.99507 17.0296L8.44959 17.4425L8.94214 17.8109L9.46929 18.1316L10.0279 18.4014L10.6147 18.6168L11.2262 18.7748C11.4355 18.8179 11.6469 18.8504 11.8594 18.8721C12.0759 18.8941 12.2934 18.9052 12.511 18.905C12.7308 18.905 12.9482 18.8939 13.1624 18.8721C13.375 18.8504 13.5863 18.8179 13.7956 18.7748L14.4073 18.6168L14.994 18.4014L15.5526 18.1316L16.0798 17.8109L16.5723 17.4425L17.0269 17.0296L17.4403 16.5755L17.809 16.0834L18.1302 15.5568L18.4002 14.9988L18.6158 14.4126C18.6783 14.2128 18.7312 14.0089 18.7739 13.8015L18.8712 13.1688C18.8932 12.9547 18.9043 12.7375 18.9043 12.5179C18.9043 12.2983 18.8932 12.0811 18.8712 11.867C18.8495 11.6546 18.817 11.4435 18.7739 11.2345C18.7312 11.0262 18.6783 10.8232 18.6158 10.6234L18.4002 10.0371L18.1302 9.47911L17.809 8.95244L17.4403 8.46044L17.0269 8.00633L16.5723 7.59346L16.0798 7.22506L15.5526 6.9043L14.994 6.63456L14.4073 6.41911L13.7956 6.26117L13.1624 6.16402C12.946 6.14192 12.7285 6.13093 12.511 6.13095ZM12.511 8.33551C12.6563 8.33551 12.7998 8.34272 12.941 8.35697L13.3575 8.42001L13.7598 8.52251L14.145 8.66244L14.5113 8.83784L14.8557 9.04647L15.1776 9.2865L15.4745 9.55576L15.744 9.85225L15.9842 10.1739L16.1931 10.5188L16.3685 10.8848C16.4212 11.01 16.468 11.1384 16.5087 11.2697C16.5493 11.401 16.5835 11.5351 16.6112 11.6717C16.6388 11.8084 16.6592 11.9474 16.6742 12.0886L16.6957 12.5184C16.6957 12.6636 16.6885 12.8069 16.6742 12.9482C16.66 13.0895 16.639 13.2285 16.6112 13.3651C16.5834 13.5016 16.5491 13.6358 16.5087 13.7671L16.3685 14.1521L16.1931 14.5181L15.9842 14.8629L15.744 15.1846L15.4745 15.4811L15.1776 15.7503L14.8557 15.9904L14.5113 16.199L14.145 16.3744L13.7598 16.5143L13.3575 16.6168L12.941 16.6798C12.7981 16.6941 12.6545 16.7013 12.5109 16.7013C12.3672 16.7013 12.2236 16.6941 12.0806 16.6798L11.6642 16.6168C11.5275 16.5891 11.3932 16.5549 11.2618 16.5143L10.8766 16.3744L10.5103 16.199L10.1659 15.9904L9.84396 15.7503L9.54714 15.4811L9.27764 15.1846L9.03736 14.8629L8.82849 14.5181L8.65309 14.1521L8.51294 13.7671L8.41042 13.3651L8.3474 12.9482C8.33306 12.8054 8.32589 12.6619 8.32592 12.5184C8.32589 12.3749 8.33306 12.2314 8.3474 12.0886C8.36156 11.9474 8.38262 11.8083 8.41042 11.6717C8.43794 11.5361 8.47217 11.402 8.51302 11.2698L8.65318 10.8849L8.82858 10.5188L9.03745 10.174L9.27771 9.85234L9.54722 9.55584L9.84403 9.28657L10.166 9.04655L10.5104 8.83791L10.8766 8.66251C11.0027 8.60958 11.1313 8.56287 11.2619 8.5226L11.6643 8.42008C11.801 8.39237 11.9402 8.37122 12.0808 8.35706C12.2238 8.34274 12.3673 8.3355 12.511 8.33551Z" fill="url(#paint0_radial_598_2394)"/>
<path d="M19.1635 4.31396C19.1128 4.31396 19.0621 4.31653 19.0116 4.32166C18.9611 4.32676 18.9109 4.3344 18.8611 4.34455C18.8114 4.35471 18.7621 4.36735 18.7137 4.38244C18.6651 4.39754 18.6175 4.41508 18.5706 4.43497C18.5239 4.4549 18.4783 4.47718 18.4336 4.50169C18.389 4.52617 18.3458 4.55287 18.304 4.58171C18.2619 4.61056 18.2215 4.64152 18.1828 4.67445C18.1439 4.70735 18.1067 4.74218 18.0713 4.77881C18.0361 4.81546 18.0026 4.85388 17.971 4.8939C17.9394 4.93393 17.9099 4.97551 17.8824 5.01851C17.855 5.06148 17.8298 5.1058 17.8067 5.15131C17.7838 5.19685 17.763 5.24351 17.7446 5.29115C17.7262 5.33876 17.7102 5.38728 17.6965 5.4365C17.683 5.48574 17.6718 5.53561 17.6633 5.58596C17.6547 5.63629 17.6486 5.68702 17.6449 5.73798C17.6423 5.77405 17.6411 5.81023 17.6411 5.84641C17.6411 5.89752 17.6435 5.9486 17.6488 5.99947C17.6538 6.0503 17.6614 6.10084 17.6715 6.15091C17.6816 6.20098 17.6941 6.25051 17.709 6.29931C17.7241 6.34813 17.7415 6.39617 17.7613 6.44324C17.781 6.49032 17.8031 6.53638 17.8276 6.58124C17.8519 6.62608 17.8784 6.66968 17.9071 6.71186C17.9357 6.75402 17.9665 6.79469 17.9991 6.83376C18.0319 6.87285 18.0665 6.91028 18.1029 6.94589C18.1394 6.98148 18.1774 7.01522 18.2173 7.04697C18.2571 7.07874 18.2984 7.10848 18.3411 7.1361C18.3838 7.16372 18.4279 7.18917 18.4731 7.21235C18.5184 7.23554 18.5647 7.25645 18.6119 7.27497C18.6593 7.2935 18.7074 7.30961 18.7564 7.32327C18.8054 7.33692 18.8548 7.3481 18.9048 7.35674C18.9548 7.36544 19.0053 7.37162 19.0559 7.37525C19.0918 7.37782 19.1277 7.37909 19.1637 7.3791C19.2144 7.3791 19.2652 7.37657 19.3158 7.37148C19.3661 7.36638 19.4165 7.35874 19.4661 7.34858C19.5159 7.33844 19.5651 7.32579 19.6137 7.3107C19.6621 7.2956 19.7099 7.27806 19.7566 7.25817C19.8033 7.23825 19.8491 7.21601 19.8935 7.19152C19.9382 7.16702 19.9814 7.14028 20.0234 7.11143C20.0652 7.08259 20.1057 7.05167 20.1446 7.01877C20.1833 6.98584 20.2205 6.951 20.2559 6.91433C20.2913 6.87768 20.3248 6.83926 20.3562 6.79924C20.3878 6.75921 20.4173 6.71763 20.4448 6.67462C20.4722 6.63164 20.4975 6.58728 20.5205 6.54176C20.5435 6.4962 20.5644 6.44954 20.5828 6.40192C20.6012 6.35429 20.6172 6.30579 20.6307 6.25655C20.6442 6.20733 20.6553 6.15745 20.664 6.10711C20.6727 6.05678 20.6788 6.00603 20.6823 5.95509C20.6849 5.919 20.6863 5.88284 20.6863 5.84666C20.6863 5.79556 20.6836 5.7445 20.6786 5.69367C20.6736 5.64284 20.6659 5.5923 20.6559 5.54223C20.6458 5.49216 20.6331 5.44263 20.6182 5.39383C20.6031 5.34501 20.5857 5.29697 20.5659 5.2499C20.5461 5.20282 20.5241 5.15676 20.4998 5.1119C20.4755 5.06706 20.4489 5.02346 20.4203 4.98127C20.3915 4.93909 20.3607 4.89839 20.3281 4.85929C20.2953 4.82021 20.2607 4.78278 20.2244 4.74718C20.188 4.71159 20.1498 4.67785 20.11 4.6461C20.0703 4.61435 20.029 4.58462 19.9863 4.55704C19.9435 4.52942 19.8994 4.50396 19.8541 4.48079C19.8088 4.45759 19.7625 4.43669 19.7152 4.41817C19.668 4.39964 19.6198 4.38353 19.5708 4.36987C19.522 4.35619 19.4724 4.34499 19.4224 4.33631C19.3724 4.32765 19.322 4.32148 19.2713 4.31789C19.2354 4.31532 19.1994 4.31396 19.1635 4.31396Z" fill="url(#paint1_radial_598_2394)"/>
<path d="M11.2987 0.0226939C10.6033 0.0215725 9.98278 0.0244555 9.42534 0.0323043L7.93087 0.0723494C7.48812 0.091571 7.09696 0.116637 6.74585 0.149074C6.57029 0.165252 6.40467 0.183352 6.24769 0.203295C6.0983 0.222123 5.94934 0.244047 5.80087 0.26905C5.65949 0.293078 5.52534 0.319026 5.39672 0.347217C5.26811 0.37541 5.14524 0.405844 5.0267 0.438521C4.91083 0.470474 4.79585 0.505621 4.68192 0.54392C4.57028 0.581562 4.46135 0.621448 4.35378 0.664055C4.13866 0.749273 3.92883 0.844897 3.71274 0.952059C3.54647 1.03455 3.39286 1.11808 3.24694 1.20651C3.10102 1.29493 2.96278 1.38831 2.82743 1.49003C2.68804 1.59528 2.55368 1.70706 2.42482 1.82497C2.2901 1.94766 2.15251 2.08261 2.00955 2.23343C1.82991 2.42188 1.67381 2.59759 1.53525 2.77002C1.46597 2.8562 1.4011 2.94143 1.33999 3.02712C1.27956 3.11157 1.22179 3.1979 1.16676 3.28596C1.1123 3.37327 1.06072 3.46218 1.01138 3.55363C0.961279 3.64667 0.913925 3.74117 0.869383 3.83698C0.778241 4.03273 0.693185 4.24353 0.608289 4.47884C0.545308 4.65278 0.488911 4.82907 0.439218 5.00726C0.388522 5.1894 0.343432 5.37994 0.303225 5.58599C0.26302 5.79207 0.22794 6.01369 0.197105 6.25875C0.163878 6.5274 0.137333 6.79683 0.117496 7.06679C0.0950709 7.3636 0.07649 7.69021 0.0612728 8.05374L0.0252324 9.26247L0.00585043 10.7359L0.000244141 12.5168L0.0166626 15.1067L0.0679204 17.0689L0.107405 17.8353L0.156741 18.4706C0.172556 18.6418 0.192343 18.8124 0.216088 18.9827C0.237711 19.1339 0.260938 19.2662 0.285926 19.3808C0.336629 19.6136 0.396584 19.8444 0.465649 20.0725C0.531777 20.2909 0.6074 20.5062 0.692303 20.718C0.775758 20.9254 0.86706 21.1254 0.966373 21.318C1.06569 21.5105 1.173 21.6956 1.28834 21.8734C1.40367 22.051 1.527 22.2214 1.65867 22.3846C1.79019 22.5478 1.93008 22.7039 2.07779 22.8527C2.22571 23.0017 2.38173 23.1433 2.54616 23.278C2.71251 23.4143 2.88547 23.5425 3.06434 23.6617C3.23036 23.7727 3.39463 23.8744 3.5601 23.9676C3.72555 24.061 3.89246 24.1456 4.06403 24.2227C4.23557 24.2996 4.41146 24.3688 4.59519 24.4312C4.7789 24.4935 4.97033 24.5489 5.17264 24.598C5.37495 24.6473 5.5891 24.6904 5.81576 24.728C6.04241 24.7657 6.28469 24.798 6.54354 24.8258C6.80239 24.8536 7.07854 24.8765 7.37528 24.8958C7.67201 24.915 7.98916 24.9303 8.32995 24.9426C8.85639 24.9617 9.65328 24.9728 10.5722 24.9772L13.5472 24.9711L16.3643 24.9317L17.4354 24.9015L18.1332 24.8657C18.283 24.8534 18.4295 24.839 18.571 24.8221C18.7125 24.8053 18.8519 24.786 18.9879 24.764C19.1236 24.7421 19.2565 24.7176 19.3868 24.6904C19.5158 24.6635 19.6441 24.6334 19.7716 24.6004C19.8978 24.5683 20.0223 24.5319 20.1455 24.4931C20.2686 24.4546 20.3907 24.4128 20.5118 24.3678C20.6337 24.3227 20.7544 24.2746 20.874 24.2237C20.9943 24.1723 21.1144 24.1176 21.2351 24.0595C21.4203 23.9702 21.5695 23.8958 21.7004 23.8232C21.8236 23.7556 21.9422 23.6801 22.0556 23.597C22.1674 23.5147 22.2785 23.4209 22.4066 23.3029C22.5348 23.1848 22.6801 23.0426 22.8598 22.8628C23.0179 22.7048 23.1511 22.5675 23.266 22.4426C23.3809 22.3178 23.4778 22.2055 23.5627 22.0971C23.6436 21.9944 23.719 21.8874 23.7886 21.7767C23.8565 21.6685 23.919 21.5562 23.9825 21.4317C24.0783 21.2444 24.1636 21.0708 24.2398 20.9032C24.3139 20.7419 24.3816 20.5775 24.4427 20.4109C24.503 20.2454 24.5552 20.0772 24.5992 19.9067C24.6443 19.7313 24.6832 19.5461 24.7169 19.343C24.7504 19.1398 24.7789 18.9188 24.8035 18.672C24.8282 18.4253 24.8492 18.1523 24.8676 17.8459L24.9165 16.817L24.9584 15.5374L24.9884 14.1118L24.9999 12.6211L24.9731 9.69343L24.9374 8.38211L24.8886 7.2562L24.8276 6.37841C24.8056 6.13414 24.7816 5.94176 24.7565 5.81169C24.7283 5.66797 24.6971 5.52494 24.6625 5.38264C24.6289 5.24421 24.5919 5.1066 24.5516 4.96995C24.5124 4.83681 24.4697 4.70469 24.4236 4.57374C24.3782 4.4444 24.3299 4.31777 24.2794 4.19388C24.229 4.06997 24.1743 3.94896 24.1176 3.83051C24.0606 3.71205 24.0011 3.59648 23.9386 3.48355C23.8759 3.37063 23.8108 3.26051 23.7426 3.1531C23.6745 3.0457 23.6035 2.94101 23.5295 2.83914C23.4561 2.73759 23.3794 2.63837 23.2997 2.5416C23.2203 2.44539 23.1381 2.35169 23.0528 2.26065C22.9677 2.16974 22.8797 2.08155 22.7891 1.9962C22.6983 1.91082 22.6049 1.82816 22.5085 1.74823C22.4117 1.66804 22.3125 1.59088 22.2108 1.51686C22.1082 1.44208 22.0033 1.37044 21.8962 1.30206C21.7877 1.23269 21.6773 1.16656 21.5648 1.10375C21.4506 1.03989 21.3342 0.979312 21.2165 0.922106C21.0209 0.827038 20.84 0.742705 20.6625 0.667901C20.4879 0.593661 20.3099 0.527726 20.1292 0.470318C19.9474 0.413052 19.7582 0.363958 19.55 0.32159C19.3417 0.279222 19.1146 0.243903 18.8577 0.213868C18.6007 0.183835 18.3137 0.159568 17.9855 0.139385C17.6573 0.119203 17.2881 0.103344 16.8666 0.0905291L15.4341 0.0584935L13.6211 0.0371095L11.2995 0.0228527L11.2987 0.0226939ZM12.5044 2.22533L15.8524 2.2444L17.1154 2.26874C17.4632 2.27851 17.7287 2.28997 17.8842 2.30318C18.087 2.32025 18.2799 2.34162 18.4646 2.36726C18.6417 2.39172 18.8181 2.42214 18.9931 2.45848C19.1613 2.49372 19.3217 2.53376 19.4754 2.57893C19.6289 2.6241 19.7756 2.67473 19.9162 2.7307C20.057 2.78669 20.1915 2.84827 20.321 2.91572C20.4495 2.98264 20.5743 3.05629 20.695 3.13636C20.8151 3.21605 20.9309 3.30191 21.0434 3.39441C21.1558 3.48691 21.2648 3.58606 21.3712 3.69211C21.4837 3.804 21.5874 3.91796 21.6828 4.03553C21.778 4.15238 21.8662 4.27485 21.9466 4.40226C22.028 4.5315 22.1012 4.66565 22.1662 4.80391C22.2325 4.94488 22.292 5.09384 22.3455 5.25218C22.3992 5.41053 22.4467 5.57879 22.4889 5.7586C22.5332 5.94922 22.5702 6.14145 22.6 6.33485C22.632 6.53988 22.6594 6.75853 22.6827 6.99263C22.7058 7.22672 22.725 7.47638 22.7408 7.74348C22.7535 7.95771 22.7646 8.24044 22.774 8.57433L22.7974 9.71282L22.8153 12.5015L22.795 15.2876L22.7705 16.4229L22.7367 17.2485C22.7134 17.6352 22.6887 17.9602 22.6592 18.243C22.6445 18.3845 22.6283 18.5154 22.6106 18.6381C22.594 18.7541 22.5742 18.8695 22.5514 18.9845C22.5306 19.0893 22.5065 19.1935 22.4789 19.297C22.4526 19.3954 22.4229 19.4931 22.3901 19.5898C22.357 19.6869 22.321 19.7829 22.2822 19.8777C22.241 19.978 22.1976 20.0772 22.1519 20.1754C22.1113 20.2631 22.0686 20.3485 22.0235 20.4315C21.9789 20.5138 21.9313 20.5944 21.8813 20.6734C21.8316 20.7517 21.7795 20.8277 21.725 20.9013C21.6709 20.9746 21.6141 21.0459 21.5547 21.1152C21.4957 21.1843 21.4341 21.251 21.37 21.3155C21.3059 21.38 21.2394 21.4421 21.1705 21.5022C21.1018 21.5622 21.0302 21.6201 20.9563 21.6756C20.8825 21.7312 20.8059 21.7845 20.7269 21.8355C20.6478 21.8867 20.5664 21.9357 20.4822 21.9826C20.3979 22.0293 20.3111 22.0739 20.2219 22.1164C20.1309 22.1596 20.0389 22.2001 19.9455 22.2378C19.8492 22.2767 19.7518 22.3128 19.6533 22.3463C19.453 22.4145 19.2419 22.4744 19.0195 22.526C18.7879 22.5796 18.554 22.6234 18.3186 22.6572C18.228 22.6704 18.02 22.6829 17.7221 22.6944L16.5868 22.726L13.3679 22.7678L9.99887 22.773L8.67578 22.7589L7.81665 22.7322L7.18314 22.6876C6.98644 22.6711 6.8035 22.6527 6.63212 22.6317C6.46073 22.6109 6.30111 22.5876 6.15094 22.5612C6.00863 22.5367 5.86719 22.5072 5.72686 22.4732C5.5989 22.4421 5.47225 22.4058 5.34724 22.3645C5.2267 22.3244 5.11144 22.2803 4.99932 22.2319C4.88719 22.1834 4.77826 22.1303 4.67038 22.0723C4.5625 22.0143 4.45574 21.9515 4.34778 21.8827C4.26633 21.831 4.1876 21.7786 4.11184 21.7232C4.03607 21.6676 3.96286 21.6122 3.89239 21.5543C3.82191 21.4963 3.75423 21.4366 3.68896 21.3751C3.62411 21.3138 3.56151 21.2503 3.50123 21.1846C3.44116 21.119 3.38373 21.0517 3.32863 20.9819C3.27331 20.9117 3.22061 20.8395 3.17062 20.7655C3.11988 20.6904 3.07187 20.6135 3.0267 20.535C2.98104 20.4556 2.93764 20.3737 2.89639 20.289C2.85444 20.2029 2.81531 20.1154 2.77906 20.0267C2.74222 19.9362 2.70729 19.843 2.67446 19.7468C2.60878 19.5541 2.55113 19.3491 2.50099 19.1305C2.45085 18.9119 2.40807 18.6796 2.37187 18.432C2.33567 18.1846 2.30653 17.9221 2.2833 17.6433C2.26616 17.4379 2.25255 17.118 2.24213 16.7143L2.22034 15.2787L2.22835 11.619L2.29139 8.1219L2.33944 6.8898L2.36666 6.48252C2.37613 6.37377 2.3859 6.2932 2.3959 6.24481C2.4289 6.08568 2.46213 5.93759 2.49649 5.79896C2.52859 5.66816 2.5643 5.5383 2.60357 5.40948C2.6409 5.2879 2.68022 5.17402 2.72227 5.06613C2.76281 4.96162 2.808 4.85898 2.85771 4.75851C2.90623 4.6608 2.95838 4.56724 3.015 4.47619C3.07163 4.38513 3.13274 4.29679 3.19937 4.20893C3.266 4.12106 3.33776 4.03433 3.41585 3.94639C3.49394 3.85846 3.57828 3.76964 3.66974 3.6781C3.77633 3.57089 3.88732 3.46815 4.00243 3.37014C4.11113 3.27768 4.22446 3.19082 4.34201 3.10994C4.45758 3.02983 4.57613 2.95856 4.69955 2.89304C4.82297 2.82754 4.95127 2.76834 5.08621 2.71509C5.22116 2.66183 5.36293 2.61417 5.51309 2.57093C5.67087 2.52667 5.83038 2.48891 5.99123 2.45775C6.16038 2.42461 6.34003 2.39568 6.53184 2.37046C6.72366 2.34523 6.92772 2.32344 7.1459 2.30454C7.29807 2.29141 7.56028 2.27971 7.90555 2.26987L9.16217 2.24504L12.505 2.22461L12.5044 2.22533Z" fill="url(#paint2_radial_598_2394)"/>
<defs>
<radialGradient id="paint0_radial_598_2394" cx="0" cy="0" r="1" gradientUnits="userSpaceOnUse" gradientTransform="translate(3.98303 26.7964) rotate(-9.53101) scale(52.8365 32.0714)">
<stop stop-color="#FED576"/>
<stop offset="0.263" stop-color="#F47133"/>
<stop offset="0.609" stop-color="#BC3081"/>
<stop offset="1" stop-color="#4C63D2"/>
</radialGradient>
<radialGradient id="paint1_radial_598_2394" cx="0" cy="0" r="1" gradientUnits="userSpaceOnUse" gradientTransform="translate(3.98306 26.7963) rotate(-9.53102) scale(52.8365 32.0714)">
<stop stop-color="#FED576"/>
<stop offset="0.263" stop-color="#F47133"/>
<stop offset="0.609" stop-color="#BC3081"/>
<stop offset="1" stop-color="#4C63D2"/>
</radialGradient>
<radialGradient id="paint2_radial_598_2394" cx="0" cy="0" r="1" gradientUnits="userSpaceOnUse" gradientTransform="translate(3.98313 26.7963) rotate(-9.53101) scale(52.8365 32.0714)">
<stop stop-color="#FED576"/>
<stop offset="0.263" stop-color="#F47133"/>
<stop offset="0.609" stop-color="#BC3081"/>
<stop offset="1" stop-color="#4C63D2"/>
</radialGradient>
</defs>
</svg>
