<svg width="25" height="25" viewBox="0 0 25 25" fill="none" xmlns="http://www.w3.org/2000/svg">
<g clip-path="url(#clip0_598_2385)">
<path d="M12.5 25C19.4036 25 25 19.4036 25 12.5C25 5.59645 19.4036 0 12.5 0C5.59645 0 0 5.59645 0 12.5C0 19.4036 5.59645 25 12.5 25Z" fill="#34AADF"/>
<path d="M5.20237 12.3914C5.20237 12.3914 11.4524 9.82643 13.62 8.92323C14.4509 8.56198 17.2688 7.40588 17.2688 7.40588C17.2688 7.40588 18.5694 6.90013 18.461 8.12843C18.4249 8.63423 18.1359 10.4044 17.8469 12.3192C17.4133 15.0287 16.9437 17.9911 16.9437 17.9911C16.9437 17.9911 16.8714 18.8221 16.2573 18.9666C15.6431 19.1111 14.6315 18.4608 14.4509 18.3163C14.3064 18.2079 11.7414 16.5822 10.8021 15.7874C10.5492 15.5706 10.2602 15.1371 10.8382 14.6313C12.1388 13.4391 13.6922 11.9579 14.6315 11.0186C15.0651 10.5851 15.4986 9.57353 13.6922 10.8018C11.1272 12.5721 8.59832 14.2339 8.59832 14.2339C8.59832 14.2339 8.02027 14.5952 6.93647 14.27C5.85262 13.9449 4.58817 13.5114 4.58817 13.5114C4.58817 13.5114 3.72117 12.9695 5.20237 12.3914Z" fill="white"/>
</g>
<defs>
<clipPath id="clip0_598_2385">
<rect width="25" height="25" fill="white"/>
</clipPath>
</defs>
</svg>
