<svg width="36" height="25" viewBox="0 0 36 25" fill="none" xmlns="http://www.w3.org/2000/svg">
<path d="M18.7231 24.9672L11.3665 24.8316C8.98465 24.7844 6.59684 24.8786 4.26166 24.3892C0.709309 23.6576 0.457648 20.0714 0.194311 17.063C-0.16854 12.8336 -0.0280695 8.52755 0.656678 4.33352C1.04324 1.98024 2.56453 0.576016 4.91712 0.423208C12.8589 -0.131347 20.8535 -0.0656263 28.7776 0.193094C29.6146 0.216811 30.4572 0.346443 31.2824 0.493998C35.3558 1.21367 35.4552 5.27788 35.7192 8.69918C35.9826 12.1558 35.8713 15.6301 35.368 19.0632C34.9643 21.9057 34.1917 24.2894 30.9312 24.5194C26.846 24.8205 22.8547 25.0627 18.7581 24.9856C18.7582 24.9672 18.7348 24.9672 18.7231 24.9672ZM14.3981 17.7708C17.4767 15.9893 20.4964 14.2375 23.5573 12.4679C20.473 10.6864 17.459 8.93455 14.3981 7.16497V17.7708Z" fill="#FF0000"/>
</svg>
