<svg width="110" height="108" viewBox="0 0 110 108" fill="none" xmlns="http://www.w3.org/2000/svg">
<path d="M55.3425 0.000104779C85.0556 0.013419 109.138 24.0399 109.138 53.6763C109.138 68.4868 103.123 81.8963 93.3978 91.6079L93.3982 91.6075C83.5977 101.721 69.8745 108 54.6813 108C24.9581 108 0.862793 83.9684 0.862793 54.3238C0.862793 39.1767 7.15367 25.4949 17.2719 15.7357L17.2869 15.7212C26.9721 6.00995 40.3801 0 55.1953 0H55.3506H55.3426L55.3425 0.000104779ZM55.3425 100.196C81.1025 100.196 101.985 79.3682 101.985 53.6763C101.985 27.9844 81.1025 7.15696 55.3425 7.15696C29.5824 7.15696 8.6998 27.9844 8.6998 53.6763C8.72976 79.3561 29.5944 100.166 55.3396 100.196H55.3425ZM46.2053 76.9646L25.3954 56.2049L30.4665 51.1476L46.2054 66.8447L80.2188 32.9215L85.2896 37.979L46.2053 76.9646Z" fill="#3B6FEC"/>
</svg>
