<svg width="141" height="28" viewBox="0 0 141 28" fill="none" xmlns="http://www.w3.org/2000/svg">
<path d="M14.9864 6.31435L20.4716 11.7995L23.6224 8.63599C23.6224 8.63599 14.8971 0.0510251 14.8971 0L6.35038 8.5467L9.5522 11.7485L14.9864 6.31435ZM14.9864 21.6984L9.50118 16.2132L6.35038 19.364C6.35038 19.364 15.0757 27.949 15.0757 28L23.6224 19.4533L20.4205 16.2515L14.9864 21.6984ZM0.957031 14.0288L4.13207 10.8538L7.3071 14.0288L4.13207 17.2039L0.957031 14.0288Z" fill="#F0B90B"/>
<path d="M11.8252 14.0287L15.0002 10.8536L18.1753 14.0287L15.0002 17.2037L11.8252 14.0287ZM22.6933 14.0285L25.8683 10.8535L29.0433 14.0285L25.8683 17.2036L22.6933 14.0285Z" fill="#F0B90B"/>
<path d="M38.9239 21V7H45.4839C47.1639 7 48.4439 7.33333 49.3239 8C50.2039 8.65333 50.6439 9.53333 50.6439 10.64C50.6439 11.3867 50.4706 12.0267 50.1239 12.56C49.7773 13.08 49.3106 13.4867 48.7239 13.78C48.1506 14.06 47.5239 14.2 46.8439 14.2L47.2039 13.48C47.9906 13.48 48.6973 13.6267 49.3239 13.92C49.9506 14.2 50.4439 14.6133 50.8039 15.16C51.1773 15.7067 51.3639 16.3867 51.3639 17.2C51.3639 18.4 50.9039 19.3333 49.9839 20C49.0639 20.6667 47.6973 21 45.8839 21H38.9239ZM41.5239 18.96H45.7239C46.6973 18.96 47.4439 18.8 47.9639 18.48C48.4839 18.16 48.7439 17.6467 48.7439 16.94C48.7439 16.2467 48.4839 15.74 47.9639 15.42C47.4439 15.0867 46.6973 14.92 45.7239 14.92H41.3239V12.9H45.2039C46.1106 12.9 46.8039 12.74 47.2839 12.42C47.7773 12.1 48.0239 11.62 48.0239 10.98C48.0239 10.3267 47.7773 9.84 47.2839 9.52C46.8039 9.2 46.1106 9.04 45.2039 9.04H41.5239V18.96ZM55.1388 21V7H57.7388V21H55.1388ZM62.5255 21V7H64.6655L73.4455 17.78H72.3855V7H74.9655V21H72.8255L64.0455 10.22H65.1055V21H62.5255ZM77.7369 21L84.0369 7H86.5969L92.9169 21H90.1969L84.7769 8.38H85.8169L80.4169 21H77.7369ZM80.6369 17.76L81.3369 15.72H88.8969L89.5969 17.76H80.6369ZM95.6974 21V7H97.8374L106.617 17.78H105.557V7H108.137V21H105.997L97.2174 10.22H98.2774V21H95.6974ZM119.369 21.2C118.302 21.2 117.309 21.0267 116.389 20.68C115.482 20.32 114.689 19.82 114.009 19.18C113.342 18.5267 112.822 17.76 112.449 16.88C112.075 16 111.889 15.04 111.889 14C111.889 12.96 112.075 12 112.449 11.12C112.822 10.24 113.349 9.48 114.029 8.84C114.709 8.18667 115.502 7.68667 116.409 7.34C117.315 6.98 118.309 6.8 119.389 6.8C120.535 6.8 121.582 7 122.529 7.4C123.475 7.78667 124.275 8.36667 124.929 9.14L123.249 10.72C122.742 10.1733 122.175 9.76667 121.549 9.5C120.922 9.22 120.242 9.08 119.509 9.08C118.775 9.08 118.102 9.2 117.489 9.44C116.889 9.68 116.362 10.02 115.909 10.46C115.469 10.9 115.122 11.42 114.869 12.02C114.629 12.62 114.509 13.28 114.509 14C114.509 14.72 114.629 15.38 114.869 15.98C115.122 16.58 115.469 17.1 115.909 17.54C116.362 17.98 116.889 18.32 117.489 18.56C118.102 18.8 118.775 18.92 119.509 18.92C120.242 18.92 120.922 18.7867 121.549 18.52C122.175 18.24 122.742 17.82 123.249 17.26L124.929 18.86C124.275 19.62 123.475 20.2 122.529 20.6C121.582 21 120.529 21.2 119.369 21.2ZM130.82 12.82H137.78V14.96H130.82V12.82ZM131.02 18.82H138.92V21H128.42V7H138.64V9.18H131.02V18.82Z" fill="#F0B90B"/>
</svg>
