<svg width="27" height="25" viewBox="0 0 27 25" fill="none" xmlns="http://www.w3.org/2000/svg">
<path d="M1.46985 21V8.5C1.46985 7.11929 2.54868 6 3.87949 6H4.4819C5.24034 6 5.95454 5.62951 6.40961 5L9.08431 1.3C9.22082 1.11115 9.43509 1 9.66262 1H17.3735C17.6011 1 17.8153 1.11115 17.9518 1.3L20.6265 5C21.0815 5.62951 21.7958 6 22.5542 6H23.1566C24.4874 6 25.5662 7.11929 25.5662 8.5V21C25.5662 22.3808 24.4874 23.5 23.1566 23.5H3.87949C2.54868 23.5 1.46985 22.3808 1.46985 21Z" stroke="black" stroke-width="1.5" stroke-linecap="round" stroke-linejoin="round"/>
<path d="M13.518 18.5C16.1796 18.5 18.3373 16.2614 18.3373 13.5C18.3373 10.7386 16.1796 8.5 13.518 8.5C10.8564 8.5 8.69873 10.7386 8.69873 13.5C8.69873 16.2614 10.8564 18.5 13.518 18.5Z" stroke="black" stroke-width="1.5" stroke-linecap="round" stroke-linejoin="round"/>
</svg>
