<svg width="320" height="122" viewBox="0 0 320 122" fill="none" xmlns="http://www.w3.org/2000/svg">
<rect width="320" height="122" fill="#DEDEDE" fill-opacity="0.31"/>
<path d="M147.47 70V57.5C147.47 56.1193 148.549 55 149.879 55H150.482C151.24 55 151.955 54.6295 152.41 54L155.084 50.3C155.221 50.1112 155.435 50 155.663 50H163.373C163.601 50 163.815 50.1112 163.952 50.3L166.626 54C167.082 54.6295 167.796 55 168.554 55H169.157C170.487 55 171.566 56.1193 171.566 57.5V70C171.566 71.3808 170.487 72.5 169.157 72.5H149.879C148.549 72.5 147.47 71.3808 147.47 70Z" stroke="black" stroke-width="1.5" stroke-linecap="round" stroke-linejoin="round"/>
<path d="M159.518 67.5C162.18 67.5 164.337 65.2614 164.337 62.5C164.337 59.7386 162.18 57.5 159.518 57.5C156.856 57.5 154.699 59.7386 154.699 62.5C154.699 65.2614 156.856 67.5 159.518 67.5Z" stroke="black" stroke-width="1.5" stroke-linecap="round" stroke-linejoin="round"/>
</svg>
