<svg width="66" height="65" viewBox="0 0 66 65" fill="none" xmlns="http://www.w3.org/2000/svg">
<path d="M51.9583 29.7917H14.0417C11.0501 29.7917 8.625 32.2168 8.625 35.2084V54.1667C8.625 57.1582 11.0501 59.5834 14.0417 59.5834H51.9583C54.9499 59.5834 57.375 57.1582 57.375 54.1667V35.2084C57.375 32.2168 54.9499 29.7917 51.9583 29.7917Z" stroke="#3B6FEC" stroke-width="3" stroke-linecap="round" stroke-linejoin="round"/>
<path d="M19.4583 29.7917V18.9584C19.4583 15.3669 20.885 11.9225 23.4246 9.38295C25.9641 6.84339 29.4085 5.41669 33 5.41669C36.5915 5.41669 40.0358 6.84339 42.5754 9.38295C45.1149 11.9225 46.5416 15.3669 46.5416 18.9584V29.7917" stroke="#3B6FEC" stroke-width="3" stroke-linecap="round" stroke-linejoin="round"/>
</svg>
