<svg width="66" height="65" viewBox="0 0 66 65" fill="none" xmlns="http://www.w3.org/2000/svg">
<path d="M62.4584 56.875V51.4584C62.4566 49.058 61.6577 46.7263 60.1871 44.8292C58.7165 42.9321 56.6575 41.5772 54.3334 40.9771" stroke="#3B6FEC" stroke-width="3" stroke-linecap="round" stroke-linejoin="round"/>
<path d="M46.2084 56.875V51.4583C46.2084 48.5852 45.067 45.8297 43.0354 43.798C41.0037 41.7664 38.2482 40.625 35.3751 40.625H13.7084C10.8352 40.625 8.07971 41.7664 6.04807 43.798C4.01643 45.8297 2.87506 48.5852 2.87506 51.4583V56.875" stroke="#3B6FEC" stroke-width="3" stroke-linecap="round" stroke-linejoin="round"/>
<path d="M43.5001 8.47711C45.8304 9.07376 47.8958 10.429 49.3708 12.3292C50.8458 14.2294 51.6464 16.5664 51.6464 18.9719C51.6464 21.3774 50.8458 23.7144 49.3708 25.6146C47.8958 27.5148 45.8304 28.87 43.5001 29.4667" stroke="#3B6FEC" stroke-width="3" stroke-linecap="round" stroke-linejoin="round"/>
<path d="M24.5418 29.7917C30.5249 29.7917 35.3751 24.9414 35.3751 18.9583C35.3751 12.9752 30.5249 8.125 24.5418 8.125C18.5587 8.125 13.7084 12.9752 13.7084 18.9583C13.7084 24.9414 18.5587 29.7917 24.5418 29.7917Z" stroke="#3B6FEC" stroke-width="3" stroke-linecap="round" stroke-linejoin="round"/>
</svg>
